<svg width="600" height="400" viewBox="0 0 600 400" xmlns="http://www.w3.org/2000/svg">
  <!-- Browser Window -->
  <rect x="0" y="0" width="600" height="400" rx="8" fill="#f7fafc" stroke="#e2e8f0" stroke-width="2"/>
  
  <!-- Browser Header -->
  <rect x="0" y="0" width="600" height="40" rx="8" fill="#4a5568"/>
  <circle cx="20" cy="20" r="6" fill="#fc8181"/>
  <circle cx="40" cy="20" r="6" fill="#f6e05e"/>
  <circle cx="60" cy="20" r="6" fill="#68d391"/>
  
  <!-- URL Bar -->
  <rect x="100" y="10" width="400" height="20" rx="10" fill="#2d3748"/>
  <text x="110" y="24" font-family="Arial, sans-serif" font-size="11" fill="#a0aec0">crohnssurvivalkit.kajabi.com</text>
  
  <!-- Course Header -->
  <rect x="0" y="40" width="600" height="80" fill="linear-gradient(135deg, #2d7d6b 0%, #38a169 100%)"/>
  <text x="30" y="70" font-family="Arial, sans-serif" font-size="24" font-weight="bold" fill="white">The Crohn's Survival Kit</text>
  <text x="30" y="95" font-family="Arial, sans-serif" font-size="14" fill="#e6fffa">Complete Digital Course for Parents of Teens</text>
  <text x="30" y="110" font-family="Arial, sans-serif" font-size="12" fill="#c6f6d5">with Kate & Dr. Michael Bishopp</text>
  
  <!-- Progress Bar -->
  <rect x="450" y="60" width="120" height="20" rx="10" fill="rgba(255,255,255,0.2)"/>
  <rect x="450" y="60" width="72" height="20" rx="10" fill="white"/>
  <text x="510" y="74" font-family="Arial, sans-serif" font-size="11" fill="#2d7d6b" text-anchor="middle">60% Complete</text>
  
  <!-- Main Content Area -->
  <rect x="30" y="140" width="360" height="220" fill="white" stroke="#e2e8f0" stroke-width="1" rx="8"/>
  
  <!-- Video Placeholder -->
  <rect x="40" y="150" width="340" height="180" fill="#1a202c" rx="4"/>
  <circle cx="210" cy="240" r="30" fill="rgba(255,255,255,0.9)"/>
  <polygon points="200,230 200,250 225,240" fill="#2d7d6b"/>
  
  <!-- Video Title -->
  <text x="50" y="345" font-family="Arial, sans-serif" font-size="16" font-weight="bold" fill="#2d3748">Module 3: Understanding Flare-Ups</text>
  <text x="50" y="360" font-family="Arial, sans-serif" font-size="12" fill="#718096">Duration: 12 minutes</text>
  
  <!-- Sidebar -->
  <rect x="410" y="140" width="160" height="220" fill="#f7fafc" stroke="#e2e8f0" stroke-width="1" rx="8"/>
  <text x="420" y="160" font-family="Arial, sans-serif" font-size="14" font-weight="bold" fill="#2d3748">Course Modules</text>
  
  <!-- Module List -->
  <!-- Module 1 - Completed -->
  <rect x="420" y="175" width="140" height="30" fill="#e6fffa" rx="4"/>
  <circle cx="430" cy="190" r="6" fill="#38a169"/>
  <path d="M427 190 L429 192 L433 186" stroke="white" stroke-width="1.5" fill="none"/>
  <text x="445" y="185" font-family="Arial, sans-serif" font-size="11" fill="#2d3748">1. Getting Started</text>
  <text x="445" y="196" font-family="Arial, sans-serif" font-size="9" fill="#718096">Completed</text>
  
  <!-- Module 2 - Completed -->
  <rect x="420" y="210" width="140" height="30" fill="#e6fffa" rx="4"/>
  <circle cx="430" cy="225" r="6" fill="#38a169"/>
  <path d="M427 225 L429 227 L433 221" stroke="white" stroke-width="1.5" fill="none"/>
  <text x="445" y="220" font-family="Arial, sans-serif" font-size="11" fill="#2d3748">2. Plain English Guide</text>
  <text x="445" y="231" font-family="Arial, sans-serif" font-size="9" fill="#718096">Completed</text>
  
  <!-- Module 3 - Current -->
  <rect x="420" y="245" width="140" height="30" fill="#2d7d6b" rx="4"/>
  <circle cx="430" cy="260" r="6" fill="white"/>
  <text x="445" y="255" font-family="Arial, sans-serif" font-size="11" fill="white" font-weight="bold">3. Understanding Flares</text>
  <text x="445" y="266" font-family="Arial, sans-serif" font-size="9" fill="#c6f6d5">In Progress</text>
  
  <!-- Module 4 - Locked -->
  <rect x="420" y="280" width="140" height="30" fill="#f1f5f9" rx="4"/>
  <circle cx="430" cy="295" r="6" fill="#cbd5e0"/>
  <text x="445" y="290" font-family="Arial, sans-serif" font-size="11" fill="#a0aec0">4. Food & Nutrition</text>
  <text x="445" y="301" font-family="Arial, sans-serif" font-size="9" fill="#cbd5e0">Locked</text>
  
  <!-- Module 5 - Locked -->
  <rect x="420" y="315" width="140" height="30" fill="#f1f5f9" rx="4"/>
  <circle cx="430" cy="330" r="6" fill="#cbd5e0"/>
  <text x="445" y="325" font-family="Arial, sans-serif" font-size="11" fill="#a0aec0">5. School & Support</text>
  <text x="445" y="336" font-family="Arial, sans-serif" font-size="9" fill="#cbd5e0">Locked</text>
  
  <!-- Bottom Bar -->
  <rect x="0" y="380" width="600" height="20" fill="#2d7d6b"/>
  <text x="30" y="394" font-family="Arial, sans-serif" font-size="11" fill="white">Premium Access Until: March 2025</text>
  <text x="450" y="394" font-family="Arial, sans-serif" font-size="11" fill="#c6f6d5">Next: Food & Nutrition Guide</text>
</svg>